<svg xmlns="http://www.w3.org/2000/svg" viewBox="0 0 1920 1080">
<defs>
<linearGradient id="sky" x1="0" y1="0" x2="0" y2="1"><stop offset="0%" stop-color="#0a1026"/><stop offset="45%" stop-color="#152447"/><stop offset="100%" stop-color="#0b1a2f"/></linearGradient>
<radialGradient id="moon" cx="78%" cy="15%" r="28%"><stop offset="0%" stop-color="#d2f3ff" stop-opacity="0.85"/><stop offset="100%" stop-color="#d2f3ff" stop-opacity="0"/></radialGradient>
<filter id="blur"><feGaussianBlur stdDeviation="18"/></filter>
</defs>
<rect width="100%" height="100%" fill="url(#sky)"/>
<rect width="100%" height="100%" fill="url(#moon)"/>
<ellipse cx="1309" cy="234" rx="132" ry="65" fill="#77a7d8" opacity="0.077" filter="url(#blur)"/>
<ellipse cx="285" cy="874" rx="172" ry="116" fill="#77a7d8" opacity="0.131" filter="url(#blur)"/>
<ellipse cx="1116" cy="209" rx="336" ry="34" fill="#77a7d8" opacity="0.053" filter="url(#blur)"/>
<ellipse cx="447" cy="358" rx="378" ry="107" fill="#77a7d8" opacity="0.053" filter="url(#blur)"/>
<ellipse cx="407" cy="853" rx="399" ry="83" fill="#77a7d8" opacity="0.074" filter="url(#blur)"/>
<ellipse cx="1206" cy="404" rx="123" ry="50" fill="#77a7d8" opacity="0.127" filter="url(#blur)"/>
<ellipse cx="696" cy="404" rx="199" ry="57" fill="#77a7d8" opacity="0.155" filter="url(#blur)"/>
<ellipse cx="689" cy="224" rx="167" ry="78" fill="#77a7d8" opacity="0.061" filter="url(#blur)"/>
<ellipse cx="1735" cy="472" rx="255" ry="35" fill="#77a7d8" opacity="0.130" filter="url(#blur)"/>
<ellipse cx="1098" cy="247" rx="313" ry="40" fill="#77a7d8" opacity="0.111" filter="url(#blur)"/>
<ellipse cx="1698" cy="763" rx="305" ry="103" fill="#77a7d8" opacity="0.071" filter="url(#blur)"/>
<ellipse cx="142" cy="166" rx="236" ry="67" fill="#77a7d8" opacity="0.158" filter="url(#blur)"/>
<ellipse cx="1751" cy="358" rx="171" ry="78" fill="#77a7d8" opacity="0.081" filter="url(#blur)"/>
<ellipse cx="1301" cy="493" rx="203" ry="77" fill="#77a7d8" opacity="0.089" filter="url(#blur)"/>
<ellipse cx="1372" cy="393" rx="156" ry="107" fill="#77a7d8" opacity="0.120" filter="url(#blur)"/>
<ellipse cx="1093" cy="866" rx="245" ry="50" fill="#77a7d8" opacity="0.101" filter="url(#blur)"/>
<ellipse cx="552" cy="775" rx="405" ry="58" fill="#77a7d8" opacity="0.125" filter="url(#blur)"/>
<ellipse cx="1726" cy="906" rx="148" ry="59" fill="#77a7d8" opacity="0.140" filter="url(#blur)"/>
<ellipse cx="1648" cy="443" rx="325" ry="64" fill="#77a7d8" opacity="0.057" filter="url(#blur)"/>
<ellipse cx="1870" cy="700" rx="281" ry="57" fill="#77a7d8" opacity="0.122" filter="url(#blur)"/>
<ellipse cx="810" cy="778" rx="354" ry="48" fill="#77a7d8" opacity="0.079" filter="url(#blur)"/>
<ellipse cx="505" cy="882" rx="407" ry="98" fill="#77a7d8" opacity="0.079" filter="url(#blur)"/>
<ellipse cx="1197" cy="558" rx="418" ry="81" fill="#77a7d8" opacity="0.090" filter="url(#blur)"/>
<ellipse cx="283" cy="641" rx="372" ry="41" fill="#77a7d8" opacity="0.133" filter="url(#blur)"/>
<ellipse cx="1763" cy="232" rx="198" ry="110" fill="#77a7d8" opacity="0.068" filter="url(#blur)"/>
<ellipse cx="1393" cy="552" rx="152" ry="79" fill="#77a7d8" opacity="0.092" filter="url(#blur)"/>
<ellipse cx="958" cy="661" rx="248" ry="100" fill="#77a7d8" opacity="0.145" filter="url(#blur)"/>
<ellipse cx="23" cy="816" rx="178" ry="117" fill="#77a7d8" opacity="0.147" filter="url(#blur)"/>
<ellipse cx="1537" cy="393" rx="294" ry="44" fill="#77a7d8" opacity="0.082" filter="url(#blur)"/>
<ellipse cx="323" cy="584" rx="121" ry="63" fill="#77a7d8" opacity="0.157" filter="url(#blur)"/>
<ellipse cx="1560" cy="302" rx="379" ry="43" fill="#77a7d8" opacity="0.146" filter="url(#blur)"/>
<ellipse cx="611" cy="774" rx="379" ry="107" fill="#77a7d8" opacity="0.072" filter="url(#blur)"/>
<ellipse cx="765" cy="900" rx="202" ry="99" fill="#77a7d8" opacity="0.155" filter="url(#blur)"/>
<ellipse cx="1889" cy="663" rx="120" ry="106" fill="#77a7d8" opacity="0.086" filter="url(#blur)"/>
<ellipse cx="39" cy="234" rx="305" ry="69" fill="#77a7d8" opacity="0.076" filter="url(#blur)"/>
<ellipse cx="493" cy="700" rx="160" ry="40" fill="#77a7d8" opacity="0.131" filter="url(#blur)"/>
<ellipse cx="1671" cy="190" rx="392" ry="46" fill="#77a7d8" opacity="0.064" filter="url(#blur)"/>
<ellipse cx="973" cy="682" rx="204" ry="63" fill="#77a7d8" opacity="0.108" filter="url(#blur)"/>
<ellipse cx="1242" cy="553" rx="228" ry="99" fill="#77a7d8" opacity="0.133" filter="url(#blur)"/>
<ellipse cx="1412" cy="325" rx="279" ry="81" fill="#77a7d8" opacity="0.159" filter="url(#blur)"/>
<polygon points="-100,585 -10,568 80,548 170,565 260,650 350,617 440,623 530,664 620,594 710,675 800,530 890,539 980,622 1070,530 1160,624 1250,679 1340,662 1430,665 1520,622 1610,663 1700,672 1790,596 1880,662 1970,549 2020,1080 -100,1080" fill="#121f35"/>
<polygon points="-100,660 -10,649 80,596 170,666 260,582 350,687 440,574 530,573 620,599 710,658 800,599 890,616 980,672 1070,696 1160,696 1250,610 1340,630 1430,612 1520,615 1610,601 1700,707 1790,695 1880,705 1970,617 2020,1080 -100,1080" fill="#0f1a2e"/>
<polygon points="-100,684 -10,743 80,707 170,721 260,722 350,633 440,656 530,735 620,662 710,724 800,699 890,652 980,707 1070,751 1160,657 1250,630 1340,745 1430,758 1520,632 1610,767 1700,747 1790,710 1880,728 1970,666 2020,1080 -100,1080" fill="#0a1325"/>
<circle cx="1074" cy="652" r="24" fill="none" stroke="#71e2d0" stroke-opacity="0.55" stroke-width="2"/>
<line x1="1074" y1="652" x2="1094.4" y2="652.0" stroke="#8ef7e8" stroke-opacity="0.35" stroke-width="1.5"/>
<line x1="1074" y1="652" x2="1088.4" y2="666.4" stroke="#8ef7e8" stroke-opacity="0.35" stroke-width="1.5"/>
<line x1="1074" y1="652" x2="1074.0" y2="672.4" stroke="#8ef7e8" stroke-opacity="0.35" stroke-width="1.5"/>
<line x1="1074" y1="652" x2="1059.6" y2="666.4" stroke="#8ef7e8" stroke-opacity="0.35" stroke-width="1.5"/>
<line x1="1074" y1="652" x2="1053.6" y2="652.0" stroke="#8ef7e8" stroke-opacity="0.35" stroke-width="1.5"/>
<line x1="1074" y1="652" x2="1059.6" y2="637.6" stroke="#8ef7e8" stroke-opacity="0.35" stroke-width="1.5"/>
<line x1="1074" y1="652" x2="1074.0" y2="631.6" stroke="#8ef7e8" stroke-opacity="0.35" stroke-width="1.5"/>
<line x1="1074" y1="652" x2="1088.4" y2="637.6" stroke="#8ef7e8" stroke-opacity="0.35" stroke-width="1.5"/>
<circle cx="901" cy="220" r="23" fill="none" stroke="#71e2d0" stroke-opacity="0.55" stroke-width="2"/>
<line x1="901" y1="220" x2="920.5" y2="220.0" stroke="#8ef7e8" stroke-opacity="0.35" stroke-width="1.5"/>
<line x1="901" y1="220" x2="914.8" y2="233.8" stroke="#8ef7e8" stroke-opacity="0.35" stroke-width="1.5"/>
<line x1="901" y1="220" x2="901.0" y2="239.6" stroke="#8ef7e8" stroke-opacity="0.35" stroke-width="1.5"/>
<line x1="901" y1="220" x2="887.2" y2="233.8" stroke="#8ef7e8" stroke-opacity="0.35" stroke-width="1.5"/>
<line x1="901" y1="220" x2="881.5" y2="220.0" stroke="#8ef7e8" stroke-opacity="0.35" stroke-width="1.5"/>
<line x1="901" y1="220" x2="887.2" y2="206.2" stroke="#8ef7e8" stroke-opacity="0.35" stroke-width="1.5"/>
<line x1="901" y1="220" x2="901.0" y2="200.4" stroke="#8ef7e8" stroke-opacity="0.35" stroke-width="1.5"/>
<line x1="901" y1="220" x2="914.8" y2="206.2" stroke="#8ef7e8" stroke-opacity="0.35" stroke-width="1.5"/>
<circle cx="856" cy="162" r="30" fill="none" stroke="#71e2d0" stroke-opacity="0.55" stroke-width="2"/>
<line x1="856" y1="162" x2="881.5" y2="162.0" stroke="#8ef7e8" stroke-opacity="0.35" stroke-width="1.5"/>
<line x1="856" y1="162" x2="874.0" y2="180.0" stroke="#8ef7e8" stroke-opacity="0.35" stroke-width="1.5"/>
<line x1="856" y1="162" x2="856.0" y2="187.5" stroke="#8ef7e8" stroke-opacity="0.35" stroke-width="1.5"/>
<line x1="856" y1="162" x2="838.0" y2="180.0" stroke="#8ef7e8" stroke-opacity="0.35" stroke-width="1.5"/>
<line x1="856" y1="162" x2="830.5" y2="162.0" stroke="#8ef7e8" stroke-opacity="0.35" stroke-width="1.5"/>
<line x1="856" y1="162" x2="838.0" y2="144.0" stroke="#8ef7e8" stroke-opacity="0.35" stroke-width="1.5"/>
<line x1="856" y1="162" x2="856.0" y2="136.5" stroke="#8ef7e8" stroke-opacity="0.35" stroke-width="1.5"/>
<line x1="856" y1="162" x2="874.0" y2="144.0" stroke="#8ef7e8" stroke-opacity="0.35" stroke-width="1.5"/>
<circle cx="623" cy="625" r="27" fill="none" stroke="#71e2d0" stroke-opacity="0.55" stroke-width="2"/>
<line x1="623" y1="625" x2="646.0" y2="625.0" stroke="#8ef7e8" stroke-opacity="0.35" stroke-width="1.5"/>
<line x1="623" y1="625" x2="639.2" y2="641.2" stroke="#8ef7e8" stroke-opacity="0.35" stroke-width="1.5"/>
<line x1="623" y1="625" x2="623.0" y2="648.0" stroke="#8ef7e8" stroke-opacity="0.35" stroke-width="1.5"/>
<line x1="623" y1="625" x2="606.8" y2="641.2" stroke="#8ef7e8" stroke-opacity="0.35" stroke-width="1.5"/>
<line x1="623" y1="625" x2="600.0" y2="625.0" stroke="#8ef7e8" stroke-opacity="0.35" stroke-width="1.5"/>
<line x1="623" y1="625" x2="606.8" y2="608.8" stroke="#8ef7e8" stroke-opacity="0.35" stroke-width="1.5"/>
<line x1="623" y1="625" x2="623.0" y2="602.0" stroke="#8ef7e8" stroke-opacity="0.35" stroke-width="1.5"/>
<line x1="623" y1="625" x2="639.2" y2="608.8" stroke="#8ef7e8" stroke-opacity="0.35" stroke-width="1.5"/>
<circle cx="946" cy="873" r="41" fill="none" stroke="#71e2d0" stroke-opacity="0.55" stroke-width="2"/>
<line x1="946" y1="873" x2="980.9" y2="873.0" stroke="#8ef7e8" stroke-opacity="0.35" stroke-width="1.5"/>
<line x1="946" y1="873" x2="970.6" y2="897.6" stroke="#8ef7e8" stroke-opacity="0.35" stroke-width="1.5"/>
<line x1="946" y1="873" x2="946.0" y2="907.9" stroke="#8ef7e8" stroke-opacity="0.35" stroke-width="1.5"/>
<line x1="946" y1="873" x2="921.4" y2="897.6" stroke="#8ef7e8" stroke-opacity="0.35" stroke-width="1.5"/>
<line x1="946" y1="873" x2="911.1" y2="873.0" stroke="#8ef7e8" stroke-opacity="0.35" stroke-width="1.5"/>
<line x1="946" y1="873" x2="921.4" y2="848.4" stroke="#8ef7e8" stroke-opacity="0.35" stroke-width="1.5"/>
<line x1="946" y1="873" x2="946.0" y2="838.1" stroke="#8ef7e8" stroke-opacity="0.35" stroke-width="1.5"/>
<line x1="946" y1="873" x2="970.6" y2="848.4" stroke="#8ef7e8" stroke-opacity="0.35" stroke-width="1.5"/>
<circle cx="1684" cy="729" r="39" fill="none" stroke="#71e2d0" stroke-opacity="0.55" stroke-width="2"/>
<line x1="1684" y1="729" x2="1717.2" y2="729.0" stroke="#8ef7e8" stroke-opacity="0.35" stroke-width="1.5"/>
<line x1="1684" y1="729" x2="1707.4" y2="752.4" stroke="#8ef7e8" stroke-opacity="0.35" stroke-width="1.5"/>
<line x1="1684" y1="729" x2="1684.0" y2="762.1" stroke="#8ef7e8" stroke-opacity="0.35" stroke-width="1.5"/>
<line x1="1684" y1="729" x2="1660.6" y2="752.4" stroke="#8ef7e8" stroke-opacity="0.35" stroke-width="1.5"/>
<line x1="1684" y1="729" x2="1650.8" y2="729.0" stroke="#8ef7e8" stroke-opacity="0.35" stroke-width="1.5"/>
<line x1="1684" y1="729" x2="1660.6" y2="705.6" stroke="#8ef7e8" stroke-opacity="0.35" stroke-width="1.5"/>
<line x1="1684" y1="729" x2="1684.0" y2="695.9" stroke="#8ef7e8" stroke-opacity="0.35" stroke-width="1.5"/>
<line x1="1684" y1="729" x2="1707.4" y2="705.6" stroke="#8ef7e8" stroke-opacity="0.35" stroke-width="1.5"/>
<circle cx="1551" cy="658" r="22" fill="none" stroke="#71e2d0" stroke-opacity="0.55" stroke-width="2"/>
<line x1="1551" y1="658" x2="1569.7" y2="658.0" stroke="#8ef7e8" stroke-opacity="0.35" stroke-width="1.5"/>
<line x1="1551" y1="658" x2="1564.2" y2="671.2" stroke="#8ef7e8" stroke-opacity="0.35" stroke-width="1.5"/>
<line x1="1551" y1="658" x2="1551.0" y2="676.7" stroke="#8ef7e8" stroke-opacity="0.35" stroke-width="1.5"/>
<line x1="1551" y1="658" x2="1537.8" y2="671.2" stroke="#8ef7e8" stroke-opacity="0.35" stroke-width="1.5"/>
<line x1="1551" y1="658" x2="1532.3" y2="658.0" stroke="#8ef7e8" stroke-opacity="0.35" stroke-width="1.5"/>
<line x1="1551" y1="658" x2="1537.8" y2="644.8" stroke="#8ef7e8" stroke-opacity="0.35" stroke-width="1.5"/>
<line x1="1551" y1="658" x2="1551.0" y2="639.3" stroke="#8ef7e8" stroke-opacity="0.35" stroke-width="1.5"/>
<line x1="1551" y1="658" x2="1564.2" y2="644.8" stroke="#8ef7e8" stroke-opacity="0.35" stroke-width="1.5"/>
<circle cx="468" cy="463" r="24" fill="none" stroke="#71e2d0" stroke-opacity="0.55" stroke-width="2"/>
<line x1="468" y1="463" x2="488.4" y2="463.0" stroke="#8ef7e8" stroke-opacity="0.35" stroke-width="1.5"/>
<line x1="468" y1="463" x2="482.4" y2="477.4" stroke="#8ef7e8" stroke-opacity="0.35" stroke-width="1.5"/>
<line x1="468" y1="463" x2="468.0" y2="483.4" stroke="#8ef7e8" stroke-opacity="0.35" stroke-width="1.5"/>
<line x1="468" y1="463" x2="453.6" y2="477.4" stroke="#8ef7e8" stroke-opacity="0.35" stroke-width="1.5"/>
<line x1="468" y1="463" x2="447.6" y2="463.0" stroke="#8ef7e8" stroke-opacity="0.35" stroke-width="1.5"/>
<line x1="468" y1="463" x2="453.6" y2="448.6" stroke="#8ef7e8" stroke-opacity="0.35" stroke-width="1.5"/>
<line x1="468" y1="463" x2="468.0" y2="442.6" stroke="#8ef7e8" stroke-opacity="0.35" stroke-width="1.5"/>
<line x1="468" y1="463" x2="482.4" y2="448.6" stroke="#8ef7e8" stroke-opacity="0.35" stroke-width="1.5"/>
<circle cx="199" cy="753" r="41" fill="none" stroke="#71e2d0" stroke-opacity="0.55" stroke-width="2"/>
<line x1="199" y1="753" x2="233.8" y2="753.0" stroke="#8ef7e8" stroke-opacity="0.35" stroke-width="1.5"/>
<line x1="199" y1="753" x2="223.6" y2="777.6" stroke="#8ef7e8" stroke-opacity="0.35" stroke-width="1.5"/>
<line x1="199" y1="753" x2="199.0" y2="787.9" stroke="#8ef7e8" stroke-opacity="0.35" stroke-width="1.5"/>
<line x1="199" y1="753" x2="174.4" y2="777.6" stroke="#8ef7e8" stroke-opacity="0.35" stroke-width="1.5"/>
<line x1="199" y1="753" x2="164.2" y2="753.0" stroke="#8ef7e8" stroke-opacity="0.35" stroke-width="1.5"/>
<line x1="199" y1="753" x2="174.4" y2="728.4" stroke="#8ef7e8" stroke-opacity="0.35" stroke-width="1.5"/>
<line x1="199" y1="753" x2="199.0" y2="718.1" stroke="#8ef7e8" stroke-opacity="0.35" stroke-width="1.5"/>
<line x1="199" y1="753" x2="223.6" y2="728.4" stroke="#8ef7e8" stroke-opacity="0.35" stroke-width="1.5"/>
<circle cx="1190" cy="222" r="41" fill="none" stroke="#71e2d0" stroke-opacity="0.55" stroke-width="2"/>
<line x1="1190" y1="222" x2="1224.8" y2="222.0" stroke="#8ef7e8" stroke-opacity="0.35" stroke-width="1.5"/>
<line x1="1190" y1="222" x2="1214.6" y2="246.6" stroke="#8ef7e8" stroke-opacity="0.35" stroke-width="1.5"/>
<line x1="1190" y1="222" x2="1190.0" y2="256.9" stroke="#8ef7e8" stroke-opacity="0.35" stroke-width="1.5"/>
<line x1="1190" y1="222" x2="1165.4" y2="246.6" stroke="#8ef7e8" stroke-opacity="0.35" stroke-width="1.5"/>
<line x1="1190" y1="222" x2="1155.2" y2="222.0" stroke="#8ef7e8" stroke-opacity="0.35" stroke-width="1.5"/>
<line x1="1190" y1="222" x2="1165.4" y2="197.4" stroke="#8ef7e8" stroke-opacity="0.35" stroke-width="1.5"/>
<line x1="1190" y1="222" x2="1190.0" y2="187.2" stroke="#8ef7e8" stroke-opacity="0.35" stroke-width="1.5"/>
<line x1="1190" y1="222" x2="1214.6" y2="197.4" stroke="#8ef7e8" stroke-opacity="0.35" stroke-width="1.5"/>
<circle cx="722" cy="218" r="19" fill="none" stroke="#71e2d0" stroke-opacity="0.55" stroke-width="2"/>
<line x1="722" y1="218" x2="738.1" y2="218.0" stroke="#8ef7e8" stroke-opacity="0.35" stroke-width="1.5"/>
<line x1="722" y1="218" x2="733.4" y2="229.4" stroke="#8ef7e8" stroke-opacity="0.35" stroke-width="1.5"/>
<line x1="722" y1="218" x2="722.0" y2="234.2" stroke="#8ef7e8" stroke-opacity="0.35" stroke-width="1.5"/>
<line x1="722" y1="218" x2="710.6" y2="229.4" stroke="#8ef7e8" stroke-opacity="0.35" stroke-width="1.5"/>
<line x1="722" y1="218" x2="705.9" y2="218.0" stroke="#8ef7e8" stroke-opacity="0.35" stroke-width="1.5"/>
<line x1="722" y1="218" x2="710.6" y2="206.6" stroke="#8ef7e8" stroke-opacity="0.35" stroke-width="1.5"/>
<line x1="722" y1="218" x2="722.0" y2="201.8" stroke="#8ef7e8" stroke-opacity="0.35" stroke-width="1.5"/>
<line x1="722" y1="218" x2="733.4" y2="206.6" stroke="#8ef7e8" stroke-opacity="0.35" stroke-width="1.5"/>
<circle cx="1276" cy="648" r="34" fill="none" stroke="#71e2d0" stroke-opacity="0.55" stroke-width="2"/>
<line x1="1276" y1="648" x2="1304.9" y2="648.0" stroke="#8ef7e8" stroke-opacity="0.35" stroke-width="1.5"/>
<line x1="1276" y1="648" x2="1296.4" y2="668.4" stroke="#8ef7e8" stroke-opacity="0.35" stroke-width="1.5"/>
<line x1="1276" y1="648" x2="1276.0" y2="676.9" stroke="#8ef7e8" stroke-opacity="0.35" stroke-width="1.5"/>
<line x1="1276" y1="648" x2="1255.6" y2="668.4" stroke="#8ef7e8" stroke-opacity="0.35" stroke-width="1.5"/>
<line x1="1276" y1="648" x2="1247.1" y2="648.0" stroke="#8ef7e8" stroke-opacity="0.35" stroke-width="1.5"/>
<line x1="1276" y1="648" x2="1255.6" y2="627.6" stroke="#8ef7e8" stroke-opacity="0.35" stroke-width="1.5"/>
<line x1="1276" y1="648" x2="1276.0" y2="619.1" stroke="#8ef7e8" stroke-opacity="0.35" stroke-width="1.5"/>
<line x1="1276" y1="648" x2="1296.4" y2="627.6" stroke="#8ef7e8" stroke-opacity="0.35" stroke-width="1.5"/>
</svg>